<svg id="Слой_1" data-name="Слой 1" xmlns="http://www.w3.org/2000/svg" xmlns:xlink="http://www.w3.org/1999/xlink" viewBox="0 0 1920.5 1336.72003"><defs><style>.cls-1{fill:url(#Безымянный_градиент_97);}.cls-2{fill:url(#Безымянный_градиент_81);}.cls-3{fill:#fff;}</style><linearGradient id="Безымянный_градиент_97" x1="958.08142" y1="621.43026" x2="961.26458" y2="1103.67911" gradientUnits="userSpaceOnUse"><stop offset="0" stop-color="#20d51b" stop-opacity="0.48"/><stop offset="0.30968" stop-color="#106a0d" stop-opacity="0.23877"/><stop offset="0.57053" stop-color="#041d04" stop-opacity="0.06574"/><stop offset="0.70854" stop-opacity="0"/></linearGradient><linearGradient id="Безымянный_градиент_81" x1="960.71297" y1="926.70046" x2="959.79806" y2="-0.79417" gradientUnits="userSpaceOnUse"><stop offset="0" stop-color="#0ad5ff" stop-opacity="0.2"/><stop offset="1" stop-opacity="0"/></linearGradient></defs><title>Ресурс 2</title><polygon class="cls-1" points="1920.5 563.22 1920 1336.72 0 1336.72 0 914.72 257 914.72 935 800.72 988.86 769.29 1036.83 751.22 1121 795.72 1245.11 748.97 1287 756.72 1373.5 741.22 1471.5 839.22 1604.5 706.22 1661 686.72 1661 756.72 1767 652.72 1837 708.72 1837 647.72 1920 730.72 1920 563.22 1920.5 563.22"/><polygon class="cls-2" points="1920 0 1920 722.81 1750 545.49 1746.41 549.24 1471.5 835.97 1344 702.99 1121 790.6 1036.83 744.19 985.5 764.35 935 795.82 257 914.72 0.5 914.72 0.09 0 1920 0"/><polygon class="cls-3" points="1753.54 564.26 1746.41 564.31 1750 560.72 1753.54 564.26"/></svg>